<svg xmlns="http://www.w3.org/2000/svg"><symbol id="down" viewBox="0 0 12.71 7.06"><path fill="none" stroke="#000" d="M.354.354l6 6 6-6"/></symbol><symbol id="pick-fill" viewBox="0 0 25 22"><path fill="#ff0045" d="M23.112 2.765a6.416 6.416 0 0 1 0 9.092L12.942 22 1.888 10.975A6.437 6.437 0 0 1 11 1.883l1.938 1.933L14 2.765a6.457 6.457 0 0 1 9.116 0"/></symbol><symbol id="star" viewBox="0 0 20 19"><path fill="#00a89c" d="M10 0l2.5 7.066 7.5.192-5.955 4.558L16.18 19 10 14.751 3.82 19l2.135-7.184L0 7.257l7.5-.192z"/></symbol><symbol id="filter" viewBox="0 0 23 14"><g stroke="#000"><path fill="none" d="M0 3.261h23M0 10.702h23"/><g fill="#fff" transform="translate(4.029)"><circle cx="3" cy="3" r="3" stroke="none"/><circle cx="3" cy="3" r="2.5" fill="none"/></g><g fill="#fff" transform="translate(13.029 8)"><circle cx="3" cy="3" r="3" stroke="none"/><circle cx="3" cy="3" r="2.5" fill="none"/></g></g></symbol><symbol id="search" viewBox="0 0 33.21 33.71"><g fill="none"><path d="M14 0A14 14 0 1 1 0 14 14 14 0 0 1 14 0z"/><path fill="#000" d="M14 2a11.921 11.921 0 0 0-8.485 3.515A11.921 11.921 0 0 0 2 14c0 3.205 1.248 6.219 3.515 8.485A11.921 11.921 0 0 0 14 26c3.205 0 6.219-1.248 8.485-3.515A11.921 11.921 0 0 0 26 14c0-3.205-1.248-6.219-3.515-8.485A11.921 11.921 0 0 0 14 2m0-2c7.732 0 14 6.268 14 14s-6.268 14-14 14S0 21.732 0 14 6.268 0 14 0z"/><path stroke="#000" stroke-width="2" d="M22.5 23l10 10"/></g></symbol><symbol id="pick" viewBox="0 0 25 22"><path fill="#fff" d="M23.112 2.765a6.416 6.416 0 0 1 0 9.092L12.942 22 1.888 10.975A6.437 6.437 0 0 1 11 1.883l1.938 1.933L14 2.765a6.457 6.457 0 0 1 9.116 0"/></symbol><symbol id="delete" viewBox="0 0 18 18"><g transform="rotate(-45 -736.287 1468.292)"><path fill="none" d="M822.586 950.686l12.728 12.728-12.728 12.728-12.728-12.728z"/><rect width="20" height="2" rx="1" transform="translate(812.586 962.414)"/><rect width="20" height="2" rx="1" transform="rotate(90 -64.914 888.5)"/></g></symbol><symbol id="plus" viewBox="0 0 20 20"><g transform="translate(-814 -952)"><rect width="20" height="2" rx="1" transform="translate(814 961)"/><rect width="20" height="2" rx="1" transform="rotate(90 -63.5 888.5)"/></g></symbol></svg>