<svg xmlns="http://www.w3.org/2000/svg" width="211" height="57.001" viewBox="0 0 211 57.001">
    <g data-name="그룹 7">
        <g data-name="합치기 1" style="fill:#fff">
            <path d="M105.5 54.855 98.96 42.44l-.281-.534H21.453a20.385 20.385 0 0 1-14.463-5.99A20.385 20.385 0 0 1 1 21.452 20.385 20.385 0 0 1 6.99 6.99 20.385 20.385 0 0 1 21.454 1h168.094a20.386 20.386 0 0 1 14.463 5.99A20.386 20.386 0 0 1 210 21.454a20.386 20.386 0 0 1-5.99 14.463 20.386 20.386 0 0 1-14.463 5.99h-77.226l-.282.535-6.54 12.414z" style="stroke:none"/>
            <path d="m105.5 52.71 6.217-11.803h77.83a19.391 19.391 0 0 0 13.756-5.698A19.391 19.391 0 0 0 209 21.453a19.391 19.391 0 0 0-5.698-13.756A19.391 19.391 0 0 0 189.547 2H21.453A19.391 19.391 0 0 0 7.697 7.698 19.391 19.391 0 0 0 2 21.453 19.391 19.391 0 0 0 7.698 35.21a19.391 19.391 0 0 0 13.755 5.698h77.83l6.217 11.802m0 4.292-7.424-14.094H21.453C9.605 42.907 0 33.302 0 21.453 0 9.605 9.605 0 21.453 0h168.094c11.849 0 21.454 9.605 21.454 21.453 0 11.849-9.605 21.454-21.454 21.454h-76.623L105.5 57z" style="fill:#ec4e27;stroke:none"/>
        </g>
        <text data-name="10초만에 빠른가입" transform="translate(35 27.021)" style="font-size:18px;font-family:NanumSquareOTFR,NanumSquareOTF"><tspan x="0" y="0">10초만에 빠른가입</tspan></text>
        <path data-name="패스 4" d="m1611.664 1787.981-2.818 8.955 5.348-.839-12.017 14.883 3.809-10.3-4.793.8z" transform="translate(-1417.194 -1778.964)" style="fill:#ffdc02;stroke:#ec4e27;stroke-width:.5px"/>
        <path data-name="패스 5" d="m1611.664 1787.981-2.818 8.955 5.348-.839-12.017 14.883 3.809-10.3-4.793.8z" transform="translate(-1587.194 -1778.964)" style="fill:#ffdc02;stroke:#ec4e27;stroke-width:.5px"/>
    </g>
</svg>
