<svg xmlns="http://www.w3.org/2000/svg" width="40" height="36" viewBox="0 0 40 36">
    <defs>
        <clipPath id="ccgn0n8n1a">
            <path data-name="사각형 2" transform="translate(-.39 .239)" style="fill:none" d="M0 0h40v36H0z"/>
        </clipPath>
    </defs>
    <g data-name="그룹 2">
        <g data-name="그룹 1" transform="translate(.39 -.239)" style="clip-path:url(#ccgn0n8n1a)">
            <path data-name="패스 1" d="M19.8 0C8.867 0 0 6.98 0 15.592 0 21.2 3.757 26.11 9.4 28.858 8.982 30.4 7.9 34.437 7.678 35.3c-.269 1.073.393 1.059.829.771.341-.226 5.426-3.671 7.621-5.158a25.127 25.127 0 0 0 3.677.269c10.938 0 19.8-6.98 19.8-15.592S30.743 0 19.8 0" style="fill:#2a1617"/>
        </g>
    </g>
</svg>
