<svg xmlns="http://www.w3.org/2000/svg"><symbol id="main-logo" viewBox="0 0 41.98 48.85"><g transform="translate(-276.947 -87.206)"><path fill="#009389" d="M318.927 105.669c0 10.2-18.463 30.392-18.463 30.392S282 115.866 282 105.669a18.464 18.464 0 0 1 36.927 0"/><path fill="#fff" d="M312.89 105.279a12.427 12.427 0 1 1-12.427-12.428 12.428 12.428 0 0 1 12.427 12.428"/><path fill="#009389" d="M308.618 102.344c0 1.33-3.65 2.409-8.155 2.409s-8.154-1.079-8.154-2.409c0-.59 1.607-1.746 3.394-2.849a9.07 9.07 0 0 1 9.521 0c1.787 1.1 3.394 2.259 3.394 2.849"/><path fill="none" stroke="#009389" stroke-miterlimit="10" d="M308.618 102.344c0 1.33-3.65 2.409-8.155 2.409s-8.154-1.079-8.154-2.409c0-.59 1.607-1.746 3.394-2.849a9.07 9.07 0 0 1 9.521 0c1.787 1.105 3.394 2.261 3.394 2.849z"/><path fill="#fff" d="M309.551 102.465h-18.177a9.061 9.061 0 0 0 .3 2.291h17.574a9.061 9.061 0 0 0 .3-2.291"/><path fill="#fff" d="M309.551 102.465h-18.177a9.061 9.061 0 0 0 .3 2.291h17.574a9.061 9.061 0 0 0 .303-2.291z"/><path fill="#009389" d="M291.677 104.755a9.077 9.077 0 0 0 17.572 0z"/><path fill="none" stroke="#009389" stroke-linejoin="round" d="M291.677 104.755a9.077 9.077 0 0 0 17.572 0z"/><path fill="#fff" d="M296.829 110.973h7.269v1.439h-7.269z"/><path fill="#009389" d="M296.829 110.973h7.269v1.439h-7.269z"/><circle cx=".5" cy=".5" r=".5" fill="#fff" transform="translate(295.947 99.253)"/><circle cx=".65" cy=".65" r=".65" fill="#fff" transform="translate(299.849 98.136)"/><ellipse cx=".65" cy=".67" fill="#fff" rx=".65" ry=".67" transform="translate(303.534 99.67)"/><circle cx=".65" cy=".65" r=".65" fill="#fff" transform="translate(307.219 101.504)"/><circle cx=".65" cy=".65" r=".65" fill="#fff" transform="translate(294.935 101.144)"/><ellipse cx=".65" cy=".67" fill="#fff" rx=".65" ry=".67" transform="translate(301.077 100.837)"/><rect width="21" height="2" fill="#009389" rx="1" transform="translate(280.947 125.253)"/><rect width="23" height="2" fill="#009389" rx="1" transform="translate(276.947 129.253)"/><rect width="16" height="2" fill="#009389" rx="1" transform="translate(284.947 133.253)"/></g></symbol><symbol id="runeat-logo" viewBox="0 0 234.04 151.4"><defs><clipPath id="hgvg7flaca"><path fill="none" stroke="#000" stroke-width="2" d="M19.569 0a19.814 19.814 0 0 1 19.57 20.049A19.812 19.812 0 0 1 19.57 40.1 19.814 19.814 0 0 1 0 20.048 19.812 19.812 0 0 1 19.569 0z"/></clipPath></defs><g fill="#d8ebea" transform="translate(0 .405)"><path d="M141.732 24.185c41.657 4.406 63.158-33.707 82.363 15.262s-25.78 109.333-67.438 104.927-104.99-14.24-99.74-64.156 43.157-60.44 84.815-56.033z"/><rect width="55.47" height="4.78" rx="2.39" transform="translate(32.515 68.117)"/><rect width="67.9" height="4.78" rx="2.39" transform="translate(11.476 80.551)"/><rect width="58.34" height="4.78" rx="2.39" transform="translate(38.145 92.986)"/><circle cx="2.39" cy="2.39" r="2.39" transform="translate(20.083 67.16)"/><circle cx="2.39" cy="2.39" r="2.39" transform="translate(0 80.551)"/></g><g fill="#fff"><path d="M154.716 43.565l-15.328-1.882-15.909-40.486 15.328 1.882 15.909 40.486z"/><path fill="#000" d="M125.024 2.394l15.076 38.37 13.071 1.604-15.076-38.37-13.071-1.604M121.934 0l17.586 2.159 16.74 42.604-17.586-2.16L121.934 0z"/></g><g fill="#fff"><path d="M170.495 134.603l-64.742-7.95c-3.617-.443-6.197-3.763-5.75-7.395l10.239-83.412a6.611 6.611 0 0 1 2.495-4.425 6.55 6.55 0 0 1 4.873-1.36l64.743 7.95c3.617.444 6.197 3.763 5.75 7.396l-10.239 83.412a6.611 6.611 0 0 1-2.495 4.425 6.55 6.55 0 0 1-4.873 1.36z"/><path fill="#000" d="M117.488 31.054a5.557 5.557 0 0 0-4.135 1.154 5.618 5.618 0 0 0-2.119 3.76l-10.24 83.41c-.378 3.087 1.81 5.905 4.882 6.282l64.742 7.95a5.557 5.557 0 0 0 4.134-1.153 5.618 5.618 0 0 0 2.12-3.76l10.24-83.412c.378-3.087-1.812-5.904-4.881-6.281l-64.742-7.95m.243-1.985l64.744 7.95c4.17.512 7.136 4.323 6.621 8.51l-10.24 83.412c-.514 4.188-4.31 7.168-8.483 6.656l-64.742-7.952c-4.17-.512-7.136-4.322-6.621-8.51l10.238-83.41c.514-4.189 4.312-7.168 8.482-6.656z"/></g><path fill="#eee" d="M105.471 127.137a6.826 6.826 0 0 1-5.004-6.9c.153.03.314.055.482.074l63.656 7.053c3.646.404 7.061-2.575 7.603-6.643l10.884-81.145a8.361 8.361 0 0 0 .075-1.094l.211.05a6.248 6.248 0 0 1 3.887 2.848 7.781 7.781 0 0 1 1.047 5.14l-10.886 81.143c-.545 4.066-3.956 7.048-7.603 6.643l-63.657-7.05a6.016 6.016 0 0 1-.695-.119z"/><g fill="none"><path d="M117.28 100.052l47.444 5.826-1.155 9.409-47.444-5.825z"/><path fill="#000" d="M119.022 102.281l-.668 5.44 43.474 5.337.667-5.439-43.473-5.338m-1.741-2.229l47.443 5.826-1.155 9.41-47.444-5.825 1.156-9.41z"/></g><g fill="none"><path d="M148.259 56.648a19.832 19.832 0 1 1-22.1 17.266 19.833 19.833 0 0 1 22.1-17.266z"/><path fill="#000" d="M148.014 58.633a17.714 17.714 0 0 0-13.15 3.647 17.714 17.714 0 0 0-6.72 11.878 17.717 17.717 0 0 0 3.648 13.152 17.716 17.716 0 0 0 11.878 6.72l-.487 3.97.487-3.97c4.728.58 9.397-.715 13.15-3.647a17.714 17.714 0 0 0 6.721-11.878 17.72 17.72 0 0 0-3.647-13.152 17.716 17.716 0 0 0-11.88-6.72m.244-1.985c.001 0 0 0 0 0 10.871 1.335 18.603 11.23 17.268 22.101-1.334 10.87-11.23 18.6-22.099 17.266-10.872-1.334-18.603-11.228-17.268-22.1 1.335-10.87 11.23-18.602 22.099-17.267z"/></g><g fill="#009389"><path d="M145.327 79.477a6.167 6.167 0 0 1-5.363-6.865 6.12 6.12 0 0 1 2.321-4.104 6.12 6.12 0 0 1 4.542-1.26 6.167 6.167 0 0 1 5.364 6.865 6.12 6.12 0 0 1-2.321 4.103 6.12 6.12 0 0 1-4.543 1.26z"/><path d="M146.707 68.241a5.126 5.126 0 0 0-3.807 1.054 5.126 5.126 0 0 0-1.944 3.439 5.166 5.166 0 0 0 4.493 5.75 5.126 5.126 0 0 0 3.805-1.056 5.126 5.126 0 0 0 1.945-3.436 5.166 5.166 0 0 0-4.492-5.75m.243-1.986a7.16 7.16 0 0 1-1.745 14.213 7.16 7.16 0 0 1 1.745-14.213z"/></g><path fill="none" stroke="#000" stroke-width="2" d="M132.459 39.2l35.12 4.313"/><g clip-path="url(#hgvg7flaca)" transform="rotate(7 -376.357 1079.29)"><g fill="#009389"><path d="M32.962 39.854H6.745c.379-4.086 1.83-7.848 4.135-10.685 2.452-3.017 5.639-4.678 8.973-4.678 3.334 0 6.52 1.661 8.974 4.679 2.306 2.836 3.756 6.598 4.136 10.684z"/><path d="M31.838 38.854c-.498-3.464-1.811-6.623-3.787-9.053-2.26-2.78-5.171-4.31-8.199-4.31s-5.937 1.53-8.197 4.31c-1.976 2.43-3.289 5.589-3.787 9.053h23.97m2.197 2H5.672c.222-4.701 1.796-9.074 4.43-12.315 2.648-3.255 6.111-5.048 9.751-5.048 3.64 0 7.103 1.793 9.75 5.048 2.635 3.241 4.21 7.615 4.432 12.314v.001z"/></g></g><g fill="none"><path d="M148.259 56.648a19.832 19.832 0 1 1-22.1 17.266 19.833 19.833 0 0 1 22.1-17.266z"/><path fill="#000" d="M148.014 58.633a17.714 17.714 0 0 0-13.15 3.647 17.714 17.714 0 0 0-6.72 11.878 17.717 17.717 0 0 0 3.648 13.152 17.716 17.716 0 0 0 11.878 6.72l-.487 3.97.487-3.97c4.728.58 9.397-.715 13.15-3.647a17.714 17.714 0 0 0 6.721-11.878 17.72 17.72 0 0 0-3.647-13.152 17.716 17.716 0 0 0-11.88-6.72m.244-1.985c.001 0 0 0 0 0 10.871 1.335 18.603 11.23 17.268 22.101-1.334 10.87-11.23 18.6-22.099 17.266-10.872-1.334-18.603-11.228-17.268-22.1 1.335-10.87 11.23-18.602 22.099-17.267z"/></g><g fill="none"><path d="M117.727 29.069l64.752 7.95a7.625 7.625 0 0 1 6.622 8.51l-10.242 83.411a7.624 7.624 0 0 1-8.483 6.656l-64.75-7.95a7.625 7.625 0 0 1-6.623-8.511l10.241-83.412a7.624 7.624 0 0 1 8.483-6.654z"/><path fill="#000" d="M117.483 31.054a5.557 5.557 0 0 0-4.135 1.153 5.618 5.618 0 0 0-2.119 3.76l-10.24 83.411c-.378 3.087 1.81 5.905 4.882 6.282l64.751 7.951a5.557 5.557 0 0 0 4.135-1.154 5.618 5.618 0 0 0 2.12-3.76l10.238-83.411c.38-3.087-1.81-5.905-4.88-6.282l-64.752-7.95m.244-1.985l64.753 7.95c4.171.512 7.135 4.323 6.62 8.51l-10.238 83.413c-.514 4.188-4.313 7.167-8.484 6.655l-64.752-7.952c-4.17-.512-7.135-4.322-6.621-8.51l10.24-83.41c.514-4.19 4.31-7.169 8.482-6.656z"/></g><g fill="#fff"><path d="M158.888 44.055l-15.328-1.882L168.79 6.74l15.327 1.882-25.228 35.434z"/><path fill="#000" d="M169.258 7.804l-23.91 33.582 13.071 1.604L182.33 9.41l-13.07-1.605m-.94-2.13l17.586 2.159-26.547 37.288-17.586-2.16 26.547-37.29z"/></g><path fill="#eee" d="M142.156 42.38l2.046-2.87 13.173 1.624L181.5 7.321l4.164.515-26.17 36.683-17.338-2.14z"/><g fill="none"><path d="M168.315 5.674l17.59 2.16-26.548 37.288-17.584-2.16z"/><path fill="#000" d="M169.258 7.805l-23.91 33.582 13.071 1.605L182.328 9.41l-13.07-1.605m-.94-2.13l17.587 2.16-26.548 37.287-17.585-2.16 26.547-37.29z"/></g></symbol></svg>