<svg xmlns="http://www.w3.org/2000/svg" width="41.98" height="48.855" viewBox="0 0 41.98 48.855">
    <g data-name="Group 1169" transform="translate(-276.947 -87.206)">
        <path data-name="Path 121" d="M36.927 18.463c0 10.2-18.463 30.392-18.463 30.392S0 28.66 0 18.463a18.464 18.464 0 0 1 36.927 0" transform="translate(282 87.206)" style="fill:#009389"/>
        <path data-name="Path 122" d="M33.019 20.228A12.427 12.427 0 1 1 20.592 7.8a12.428 12.428 0 0 1 12.427 12.428" transform="translate(279.871 85.051)" style="fill:#fff"/>
        <path data-name="Path 123" d="M27.179 15.5c0 1.33-3.65 2.409-8.155 2.409S10.87 16.83 10.87 15.5c0-.59 1.607-1.746 3.394-2.849a9.07 9.07 0 0 1 9.521 0c1.787 1.1 3.394 2.259 3.394 2.849" transform="translate(281.439 86.844)" style="fill:#009389"/>
        <path data-name="Path 124" d="M27.179 15.5c0 1.33-3.65 2.409-8.155 2.409S10.87 16.83 10.87 15.5c0-.59 1.607-1.746 3.394-2.849a9.07 9.07 0 0 1 9.521 0c1.787 1.105 3.394 2.261 3.394 2.849z" transform="translate(281.439 86.844)" style="stroke-miterlimit:10;fill:none;stroke:#009389"/>
        <path data-name="Path 125" d="M28.319 14.67H10.142a9.061 9.061 0 0 0 .3 2.291h17.574a9.061 9.061 0 0 0 .3-2.291" transform="translate(281.232 87.795)" style="fill:#fff"/>
        <path data-name="Path 126" d="M28.319 14.67H10.142a9.061 9.061 0 0 0 .3 2.291h17.574a9.061 9.061 0 0 0 .303-2.291z" transform="translate(281.232 87.795)" style="fill:#fff"/>
        <path data-name="Path 127" d="M10.378 16.455a9.077 9.077 0 0 0 17.572 0z" transform="translate(281.299 88.3)" style="fill:#009389"/>
        <path data-name="Path 128" d="M10.378 16.455a9.077 9.077 0 0 0 17.572 0z" transform="translate(281.299 88.3)" style="stroke-linejoin:round;fill:none;stroke:#009389"/>
        <path data-name="Rectangle 2130" transform="translate(296.829 110.973)" style="fill:#fff" d="M0 0h7.269v1.439H0z"/>
        <path data-name="Rectangle 2131" transform="translate(296.829 110.973)" style="fill:#009389" d="M0 0h7.269v1.439H0z"/>
        <circle data-name="Ellipse 16" cx=".5" cy=".5" r=".5" transform="translate(295.947 99.253)" style="fill:#fff"/>
        <circle data-name="Ellipse 17" cx=".65" cy=".65" transform="translate(299.849 98.136)" style="fill:#fff" r=".65"/>
        <ellipse data-name="Ellipse 18" cx=".65" cy=".667" rx=".65" ry=".667" transform="translate(303.534 99.67)" style="fill:#fff"/>
        <circle data-name="Ellipse 21" cx=".65" cy=".65" transform="translate(307.219 101.504)" style="fill:#fff" r=".65"/>
        <circle data-name="Ellipse 19" cx=".65" cy=".65" transform="translate(294.935 101.144)" style="fill:#fff" r=".65"/>
        <ellipse data-name="Ellipse 20" cx=".65" cy=".667" rx=".65" ry=".667" transform="translate(301.077 100.837)" style="fill:#fff"/>
        <rect data-name="Rectangle 2133" width="21" height="2" rx="1" transform="translate(280.947 125.253)" style="fill:#009389"/>
        <rect data-name="Rectangle 2134" width="23" height="2" rx="1" transform="translate(276.947 129.253)" style="fill:#009389"/>
        <rect data-name="Rectangle 2135" width="16" height="2" rx="1" transform="translate(284.947 133.253)" style="fill:#009389"/>
    </g>
</svg>
