<svg xmlns="http://www.w3.org/2000/svg" width="33.207" height="33.707" viewBox="0 0 33.207 33.707">
    <g data-name="Group 11">
        <g data-name="Path 21" style="fill:none">
            <path d="M14 0A14 14 0 1 1 0 14 14 14 0 0 1 14 0z" style="stroke:none"/>
            <path d="M14 2a11.921 11.921 0 0 0-8.485 3.515A11.921 11.921 0 0 0 2 14c0 3.205 1.248 6.219 3.515 8.485A11.921 11.921 0 0 0 14 26c3.205 0 6.219-1.248 8.485-3.515A11.921 11.921 0 0 0 26 14c0-3.205-1.248-6.219-3.515-8.485A11.921 11.921 0 0 0 14 2m0-2c7.732 0 14 6.268 14 14s-6.268 14-14 14S0 21.732 0 14 6.268 0 14 0z" style="fill:#000;stroke:none"/>
        </g>
        <path data-name="Line 2" transform="translate(22.5 23)" style="stroke:#000;stroke-width:2px;fill:none" d="m0 0 10 10"/>
    </g>
</svg>
