<svg xmlns="http://www.w3.org/2000/svg"><symbol id="kakao-logo" viewBox="0 0 40 36"><defs><clipPath id="ccgn0n8n1a"><path fill="none" d="M0 0h40v36H0z" transform="translate(-.39 .239)"/></clipPath></defs><g clip-path="url(#ccgn0n8n1a)" transform="translate(.39 -.239)"><path fill="#2a1617" d="M19.8 0C8.867 0 0 6.98 0 15.592 0 21.2 3.757 26.11 9.4 28.858 8.982 30.4 7.9 34.437 7.678 35.3c-.269 1.073.393 1.059.829.771.341-.226 5.426-3.671 7.621-5.158a25.127 25.127 0 0 0 3.677.269c10.938 0 19.8-6.98 19.8-15.592S30.743 0 19.8 0"/></g></symbol><symbol id="kakao-tooltip" viewBox="0 0 211 57"><g fill="#fff"><path d="M105.5 54.855L98.96 42.44l-.281-.534H21.453a20.385 20.385 0 0 1-14.463-5.99A20.385 20.385 0 0 1 1 21.452 20.385 20.385 0 0 1 6.99 6.99 20.385 20.385 0 0 1 21.454 1h168.094a20.386 20.386 0 0 1 14.463 5.99A20.386 20.386 0 0 1 210 21.454a20.386 20.386 0 0 1-5.99 14.463 20.386 20.386 0 0 1-14.463 5.99h-77.226l-.282.535-6.54 12.414z"/><path fill="#ec4e27" d="M105.5 52.71l6.217-11.803h77.83a19.391 19.391 0 0 0 13.756-5.698A19.391 19.391 0 0 0 209 21.453a19.391 19.391 0 0 0-5.698-13.756A19.391 19.391 0 0 0 189.547 2H21.453A19.391 19.391 0 0 0 7.697 7.698 19.391 19.391 0 0 0 2 21.453 19.391 19.391 0 0 0 7.698 35.21a19.391 19.391 0 0 0 13.755 5.698h77.83L105.5 52.71m0 4.292l-7.424-14.094H21.453C9.605 42.907 0 33.302 0 21.453 0 9.605 9.605 0 21.453 0h168.094c11.849 0 21.454 9.605 21.454 21.453 0 11.849-9.605 21.454-21.454 21.454h-76.623L105.5 57z"/></g><text font-family="NanumSquareOTFR,NanumSquareOTF" font-size="18" transform="translate(35 27.021)"><tspan x="0" y="0">10초만에 빠른가입</tspan></text><path fill="#ffdc02" stroke="#ec4e27" stroke-width=".5" d="M194.47 9.017l-2.818 8.955 5.348-.839-12.017 14.883 3.809-10.3-4.793.8zm-170 0l-2.818 8.955L27 17.133 14.983 32.016l3.809-10.3-4.793.8z"/></symbol></svg>